<svg width="781" height="875" viewBox="0 0 781 875" fill="none" xmlns="http://www.w3.org/2000/svg">
<rect x="106.884" y="724.639" width="952.505" height="565.503" rx="105.53" transform="rotate(-97.1699 106.884 724.639)" fill="#C85B15"/>
<rect x="102.001" y="715.505" width="952.505" height="565.503" rx="105.53" transform="rotate(-90 102.001 715.505)" fill="#FF7D29"/>
<path d="M335.943 279.729C329.769 319.31 351.389 321.27 352.285 348.073C352.593 357.222 352.789 360.054 346.692 373.637C343.857 379.955 335.282 374.365 334.998 367.68C334.851 364.194 334.424 360.778 334.2 357.366C333.92 353.152 320.081 339.505 318.223 331C311.433 299.938 335.873 264.619 335.943 279.725V279.729Z" fill="#FFBF78"/>
<path d="M213.856 485.561C212.768 470.164 211.672 475.901 212.33 469.657C213.338 460.14 241.118 486.443 233.103 515.048C229.337 528.49 228.644 521.884 224.895 540.179C224.104 544.029 222.053 547.215 219.302 549.84C217.335 551.719 212.631 551.502 211.021 549.042C205.831 541.1 205.057 540.543 204.847 526.382C204.679 514.978 213.489 506.697 213.853 485.564L213.856 485.561Z" fill="#FFBF78"/>
<path d="M536.98 297.157C534.439 329.403 553.066 334.121 550.49 359.181C549.458 369.201 536.326 378.574 532.696 368.984C528.188 357.074 531.321 357.725 526.886 348.429C516.659 326.998 523.113 316.586 531.317 297.805C533.792 292.138 536.984 290.969 536.984 297.15L536.98 297.157Z" fill="#FFBF78"/>
<path fill-rule="evenodd" clip-rule="evenodd" d="M594.184 497.505C592.595 506.334 591.769 510.932 595.812 522.961L595.815 522.964C598.815 531.885 602.511 538.605 605.934 544.821C612.185 556.171 617.518 565.859 616.007 584.262C613.893 609.998 605.549 619.16 594.527 631.263C592.035 634 589.407 636.885 586.684 640.143C584.461 627.704 580.8 615.041 575.55 602.27L575.547 602.273C562.47 570.465 540.54 543.806 511.199 525.431L511.157 525.403C509.299 524.239 507.857 523.335 506.289 523.005C503.706 522.461 500.794 523.48 495.152 527.485C495.148 527.426 495.148 527.37 495.141 527.31C494.885 523.392 489.839 519.787 481.495 512.358C469.997 502.122 463.973 494.968 459.931 495.952C454.566 497.259 452.693 512.887 446.162 554.642C441.944 552.248 437.72 552.069 432.613 556.952C432.603 556.962 431.889 557.505 430.648 558.446C430.635 554.348 430.623 550.683 430.613 547.372C430.534 521.785 430.52 517.274 430.072 496.673C431.486 496.636 432.771 496.627 433.936 496.618H433.94C439.477 496.577 442.347 496.556 443.799 493.622C445.399 490.394 443.194 487.275 438.819 481.073C437.863 479.723 436.806 478.227 435.665 476.552C434.605 474.996 433.544 473.39 432.494 471.791C425.189 460.7 418.13 449.982 411.844 459.122C408.533 463.934 405.677 468.021 403.236 471.515C392.298 487.166 389.676 490.919 391.653 494.71C393.414 498.082 397.584 497.78 402.726 497.407C403.47 497.353 404.235 497.297 405.016 497.251C405.016 497.264 405.021 502.529 405.034 511.263C404.694 511.067 404.353 510.872 404.013 510.677L404.003 510.671C403.29 510.263 402.582 509.858 401.89 509.453V509.45C394.967 505.405 389.102 501.751 384.144 498.663L384.142 498.662C366.943 487.948 360.659 484.034 358.966 494.127C358.336 497.88 357.76 501.262 357.24 504.314L357.239 504.321C355.552 514.223 354.46 520.637 354.059 524.904C353.091 523.725 352.089 522.497 351.053 521.215C344.125 512.645 333.548 520.408 320.9 529.69C319.618 530.632 318.314 531.587 316.991 532.546C302.999 542.665 290.999 555.009 281.17 568.883C278.286 569.552 275.046 570.343 271.392 571.232C261.925 573.542 249.677 576.531 233.64 579.807C231.225 575.659 229.84 572.46 230.852 555.212C231.86 538.073 245.234 503.35 253.004 505.898C254.412 506.361 254.215 511.425 253.953 518.154C253.268 535.721 252.142 564.638 277.987 552.671C283.59 550.078 285.526 537.128 285.904 530.81C286.355 523.276 283.433 515.552 280.469 507.717C277.947 501.05 275.394 494.303 274.865 487.523C273.537 470.53 276.975 459.102 280.557 447.195C283.876 436.163 287.318 424.719 287.208 408.057C296.987 405.879 306.644 403.499 315.855 400.925C318.9 412.603 318.578 427.684 318.28 441.595C318.01 454.169 317.762 465.787 320.039 473.072C326.707 494.404 351.434 492.861 354.392 478.157C355.937 470.475 351.591 461.3 346.745 451.067C338.669 434.016 329.201 414.027 343.279 393.107C348.272 385.687 353.386 382.672 358.417 379.706C363.186 376.893 367.882 374.124 372.329 367.687C378.146 359.266 381.793 347.054 379.228 334.713L379.19 334.532C373.865 308.912 367.125 276.481 379.081 253.006C385.822 239.77 391.082 218.686 393.398 209.401C393.802 207.782 394.117 206.522 394.334 205.725C396.71 197.002 404.445 198.595 407.623 204.997C413.002 215.833 411.231 230.289 409.252 246.456C407.654 259.504 405.919 273.666 407.697 287.939C413.528 334.78 436.771 337.541 437.618 326.649C437.681 325.835 437.318 324.244 436.813 322.027C434.566 312.182 429.497 289.981 446.407 268.472C446.942 267.791 447.488 266.972 448.083 266.084C450.463 262.521 453.582 257.854 459.627 256.562C465.006 255.41 468.628 259.029 467.908 264.913C467.697 266.629 467.015 268.587 466.084 271.245C464.422 276.009 461.972 283.019 460.064 294.908C456.921 314.48 469.675 324.603 484.13 336.076C501.476 349.846 521.272 365.56 518.966 401.889C518.598 407.679 515.28 417.524 511.353 429.166C502.379 455.786 490.241 491.797 502.988 510.179C509.589 519.699 532.413 529.214 527.537 464.497C525.7 440.095 527.464 434.211 535.818 417.87C547.001 396.005 559.247 400.737 555.793 420.558C555.635 421.459 555.415 422.451 555.156 423.598C554.004 428.739 552.159 436.981 552.38 453.965C552.464 460.53 554.61 467.307 556.958 474.718C561.179 488.053 566.055 503.438 560.731 523.325C547.589 572.422 567.115 575.397 571.844 563.343C574.224 557.281 573.993 552.51 573.604 544.537C573.342 539.133 573.009 532.263 573.37 522.527C573.951 506.748 579.771 497.824 587.867 485.409L587.87 485.405C588.679 484.163 589.512 482.886 590.366 481.563C591.251 480.191 592.546 479.589 594.142 479.963C597.317 480.706 596.011 487.346 595.423 490.326V490.333L595.42 490.343C595.339 490.77 595.269 491.12 595.231 491.366C594.874 493.662 594.513 495.673 594.184 497.503V497.505ZM364.044 536.82C372.083 546.326 375.947 551.103 376.038 555.951C376.126 560.62 372.714 565.355 366.163 574.445C365.544 575.302 364.897 576.202 364.222 577.143C367.848 573.71 374.782 569.111 385.913 562.615C395.53 557.004 396.266 568.362 397.027 580.097C397.094 581.13 397.161 582.166 397.235 583.195C399.689 581.452 402.396 579.492 405.187 577.451C405.137 561.813 405.101 546.613 405.074 533.725C399.63 538.587 393.411 543.977 390.925 545.766L390.724 545.874C390.115 546.196 389.642 546.448 389.138 546.581C387.392 547.05 385.271 546.116 375.801 541.951C372.733 540.6 368.892 538.913 364.044 536.82ZM306.456 498.415C307.355 508.222 313.424 510.284 322.29 511.124C327.879 511.656 328.222 506.864 325.268 504.225C319.5 499.074 316.88 494.397 315.05 491.129C313.328 488.054 312.304 486.228 310.015 486.431C306.603 486.736 306.151 495.076 306.456 498.415ZM360.397 396.635C359.874 397.441 359.352 398.245 358.749 398.984V398.987C349.842 409.904 351.123 428.475 363.761 428.258C375.238 429.346 378.514 400.797 374.002 392.813C371.825 388.96 368.203 389.999 364.559 392.085C362.637 393.185 361.516 394.912 360.397 396.635ZM479.167 400.293C476.553 417.068 496.485 423.463 497.034 406.684C497.342 397.314 494.525 375.803 485.848 373.056C483.661 372.363 480.469 373.563 479.822 375.67C477.84 382.107 478.236 385.242 478.74 389.221C479.09 392.016 479.496 395.228 479.167 400.293ZM530.151 521.438C526.896 524.791 528.339 527.1 530.225 529.498C536.553 537.551 545.548 525.14 545.258 514.61L545.198 514.012C544.652 508.646 544.246 504.659 540.536 504.078C536.777 503.49 535.804 507.148 534.638 511.532C533.732 514.949 532.706 518.807 530.151 521.438Z" fill="#FFBF78"/>
<path fill-rule="evenodd" clip-rule="evenodd" d="M514.709 807.999C520.565 817.642 527.404 827.291 533.497 835.121C534.288 836.136 535.02 837.084 535.702 837.966C543.675 848.267 544.837 849.765 550.056 847.829L550.059 847.836C598.412 829.92 654.541 800.509 688.344 777.315C689.72 776.366 690.231 775.568 687.907 773.101C668.527 752.535 648.455 723.863 637.72 704.683C635.848 701.34 629.474 705.089 613.374 714.563C604.127 720.006 591.671 727.335 575.018 736.291C573.73 739.154 572.365 741.975 570.923 744.754C574.979 742.64 579.277 740.372 583.827 737.94C595.517 731.692 621.785 717.381 632.705 709.761C634.885 708.242 636.506 711.133 640.338 717.962C646.127 728.28 656.96 747.586 682.384 774.256C682.646 774.532 682.881 774.711 682.916 774.921C683.073 775.873 679.195 777.497 655.948 791.906C624.529 811.387 585.612 828.201 556.419 840.815C553.545 842.058 550.766 843.258 548.096 844.417V844.413C547.515 844.847 546.934 844.266 546.496 843.395C542.821 838.117 539.388 833.493 536.059 829.017C530.368 821.352 524.992 814.114 519.273 804.758C517.768 805.861 516.246 806.942 514.709 807.999Z" fill="#191919"/>
<path d="M522.892 775.708C523.256 775.635 523.473 775.782 523.62 776.146C527.834 784.28 532.78 791.973 537.2 799.967C553.577 829.58 558.631 832.51 557.175 833.738C552.684 837.529 519.189 778.466 522.892 775.708Z" fill="#191919"/>
<path d="M539.377 771.859C545.187 777.595 552.989 794.038 567.122 815.654C573.348 825.181 573.936 824.432 573.149 825.314C568.798 830.193 538.649 777.525 539.377 771.859Z" fill="#191919"/>
<path fill-rule="evenodd" clip-rule="evenodd" d="M273.261 756.018C257.747 758.646 239.928 761.299 219.52 763.795C214.557 764.407 214.867 766.675 216.781 780.661C216.912 781.617 217.051 782.628 217.196 783.696C219.292 799.166 225.34 818.699 230.849 833.301C231.256 834.383 231.635 835.394 231.992 836.346C236.677 848.848 237.371 850.696 242.907 850.371V850.367C283.774 847.966 331.495 840.035 369.044 830.778C366.241 829.892 363.442 828.923 360.65 827.869C360.573 827.89 360.496 827.911 360.419 827.929C324.742 837.344 282.649 842.009 251.064 845.509C247.92 845.856 244.881 846.195 241.962 846.521L241.958 846.517C241.307 846.738 240.943 846.01 240.579 845.138C238.556 838.81 236.554 833.228 234.613 827.813C228.957 812.042 223.816 797.706 220.171 770.55C219.816 767.9 219.846 767.897 227.124 767.326C234.295 766.763 248.505 765.646 276.319 760.897C275.268 759.283 274.248 757.656 273.261 756.018Z" fill="#191919"/>
<path d="M238.042 773.388C238.406 773.388 238.549 773.679 238.623 773.969C240.222 782.975 242.693 791.763 244.58 800.695C251.566 833.812 255.465 838.079 253.732 838.824C248.328 841.155 233.758 774.984 238.045 773.385L238.042 773.388Z" fill="#191919"/>
<path d="M254.89 774.62C258.74 781.809 261.414 799.827 268.617 824.59C271.809 835.559 272.604 834.964 271.522 835.629C265.964 839.052 252.566 779.776 254.89 774.62Z" fill="#191919"/>
<path fill-rule="evenodd" clip-rule="evenodd" d="M275.307 577.752C274.973 577.832 274.635 577.916 274.292 577.997C252.375 583.303 213.934 592.602 150.377 600.379C145.414 600.988 145.725 603.26 147.639 617.242C147.77 618.198 147.908 619.209 148.053 620.28C150.149 635.75 155.97 654.633 161.706 669.886C162.102 670.936 162.471 671.923 162.819 672.85C167.523 685.422 168.217 687.281 173.764 686.955V686.952C197.895 685.534 224.398 682.195 249.792 677.796C249.72 676.273 249.667 674.754 249.634 673.235C225.714 677.236 201.747 679.892 181.921 682.09C178.777 682.437 175.738 682.776 172.819 683.105L172.815 683.102C172.091 683.322 171.72 682.594 171.436 681.723C169.491 675.766 167.583 670.463 165.737 665.343C159.926 649.208 154.744 634.819 151.028 607.134C150.673 604.481 150.704 604.478 157.981 603.907C167.437 603.165 189.129 601.461 238.111 591.738C245.76 590.219 259.025 587.52 271.242 584.727C272.542 582.368 273.897 580.044 275.307 577.752Z" fill="#191919"/>
<path d="M168.899 610.043C169.263 610.043 169.406 610.334 169.48 610.624C171.079 619.63 173.55 628.418 175.437 637.35C182.423 670.467 186.322 674.734 184.589 675.479C179.185 677.81 164.545 611.566 168.902 610.04L168.899 610.043Z" fill="#191919"/>
<path d="M185.748 611.205C189.598 618.394 192.272 636.412 199.475 661.174C202.667 672.143 203.399 671.559 202.454 672.213C196.787 675.699 183.424 616.36 185.748 611.205Z" fill="#191919"/>
<path d="M129.534 410.532C129.898 410.385 130.045 410.602 130.189 410.823C134.697 417.746 139.639 424.399 144.206 431.231C161.234 456.704 165.983 458.965 164.762 460.211C161.02 464.026 126.412 413.294 129.538 410.532H129.534Z" fill="#191919"/>
<path d="M144.059 405.812C149.726 410.534 158.021 424.758 172.385 443.217C178.709 451.347 179.203 450.616 178.559 451.498C175.087 456.247 143.842 410.971 144.059 405.816V405.812Z" fill="#191919"/>
<path fill-rule="evenodd" clip-rule="evenodd" d="M149.297 386.624C138.078 393.386 125.292 400.765 110.726 408.716C106.718 410.904 107.735 412.689 114.096 423.846C114.522 424.594 114.973 425.384 115.447 426.219C122.419 438.494 134.029 452.882 143.626 463.26C144.458 464.16 145.227 464.997 145.942 465.774C153.824 474.348 154.998 475.626 159.53 473.501H159.533C193.919 457.377 232.641 434.323 261.156 413.359C257.548 414.03 253.962 414.671 250.415 415.283C223.808 435.002 190.449 452.905 165.263 466.422C162.575 467.864 159.98 469.257 157.496 470.596V470.592C156.989 471.026 156.397 470.529 155.827 469.864C152.652 466.163 149.685 462.843 146.828 459.647C135.932 447.459 126.64 437.064 113.557 414.085C112.333 411.935 112.348 411.928 118.556 408.825C123.822 406.194 133.544 401.336 150.747 391.055C150.251 389.581 149.768 388.104 149.297 386.624Z" fill="#191919"/>
<path d="M173.764 416.997C167.807 417.343 167.457 415.177 161.706 399.927C156.197 385.325 150.149 365.792 148.053 350.322C145.792 333.62 145.074 331.072 150.377 330.421C264.68 316.438 297.751 297.517 299.557 305.798C304.237 327.288 314.912 360.584 327.519 385.906C329.038 388.958 328.313 389.529 326.647 390.047C287.36 402.244 225.175 414.008 173.764 416.993V416.997ZM172.819 413.147C205.064 409.514 252.048 404.904 291.276 394.555C323.588 386.029 322.668 387.359 321.709 385.402C294.738 330.438 299.484 307.104 293.093 309.141C280.381 313.197 251.114 319.235 238.111 321.779C151.388 338.754 150.216 331.079 151.028 337.102C155.952 373.572 163.904 386.806 171.436 411.691C171.744 412.702 172.091 413.434 172.815 413.143L172.819 413.147Z" fill="#191919"/>
<path d="M168.899 340.081C169.263 340.081 169.407 340.372 169.48 340.662C171.08 349.668 173.551 358.456 175.437 367.388C182.423 400.505 186.322 404.772 184.59 405.517C179.186 407.848 164.545 341.677 168.903 340.078L168.899 340.081Z" fill="#191919"/>
<path d="M185.748 341.243C189.598 348.432 192.272 366.45 199.475 391.212C202.667 402.181 203.399 401.597 202.454 402.251C196.787 405.737 183.424 346.472 185.748 341.243Z" fill="#191919"/>
<path d="M363.18 779.849C363.761 777.017 367.531 768.246 370.079 769.317C371.311 769.835 371.255 771.207 371.024 772.513C369.368 781.896 362.673 786.093 363.18 779.849Z" fill="#191919"/>
<path d="M487.885 774.252C488.032 777.157 485.635 777.448 484.616 775.995C474.596 761.687 484.616 760.599 487.885 774.252Z" fill="#191919"/>
<path d="M312.994 736.487C310.813 736.561 310.309 734.314 311.541 733.218C313.582 731.409 320.736 725.616 322.437 727.772C324.292 730.124 315.755 736.123 312.994 736.487Z" fill="#191919"/>
<path d="M534.295 721.091C534.295 722.544 533.217 723.538 532.045 722.908C528.811 721.172 525.283 720.083 522.458 717.679C520.418 715.943 521.594 714.014 523.911 714.627C525.734 715.11 534.733 719.348 534.295 721.091Z" fill="#191919"/>
<path d="M535.384 623.189C537.564 623.042 538.299 624.575 537.274 625.877C536.409 626.973 537.204 626.465 528.268 630.308C526.235 631.183 525.146 628.856 526.452 627.694C529.14 625.3 532.626 624.425 535.384 623.189Z" fill="#191919"/>
<path d="M321.635 586.726C322.073 579.607 336.237 595.133 329.986 593.481C326.647 592.599 324.467 590.069 321.926 587.962C321.635 587.671 321.635 587.164 321.635 586.726Z" fill="#191919"/>
<path d="M300.936 629.654C299.12 622.825 317.421 633.042 310.96 633.43C307.544 633.637 304.643 631.971 301.591 630.742C301.227 630.595 301.083 630.088 300.936 629.654Z" fill="#191919"/>
<path d="M495.001 579.25C493.122 581.724 490.091 580.065 491.949 577.216C496.002 571.007 497.087 569.482 498.557 570.245C500.923 571.47 498.354 574.833 494.998 579.25H495.001Z" fill="#191919"/>
<path fill-rule="evenodd" clip-rule="evenodd" d="M405.236 591.651C401.494 594.318 397.879 596.883 394.631 599.144C390.732 602.672 390.578 602.613 371.761 595.382C368.489 594.125 364.652 592.648 360.132 590.937C359.475 590.688 358.844 590.45 358.238 590.223C346.464 585.778 344.321 584.969 347.423 580.405C353.538 571.41 359.638 563.073 363.982 557.746C364.696 556.864 364.692 556.388 360.349 551.499V551.492C359.631 550.683 357.29 551.194 356.355 552.29C355.969 552.745 354.68 553.487 352.709 554.621C338.946 562.541 291.967 589.575 287.647 670.383C288.186 670.38 288.707 670.373 289.21 670.369C302.862 670.233 303.382 670.229 303.26 675.759C303.208 678.083 302.242 679.098 299.991 678.955C298.153 678.839 296.314 679 294.475 679.158C292.9 679.294 291.325 679.431 289.75 679.392C283.94 679.259 294.118 764.848 378.72 793.856C380.542 794.483 382.414 794.938 384.28 795.389C386.285 795.876 388.282 796.362 390.197 797.052C390.917 797.314 391.674 797.363 392.43 797.409C393.126 797.454 393.82 797.496 394.481 797.706C399.837 799.4 405.387 799.698 410.928 799.995C412.98 800.104 415.031 800.216 417.07 800.394C418.902 800.559 418.88 799.999 418.763 796.982C418.693 795.211 418.591 792.593 418.813 788.774C419.026 785.141 420.265 784.865 424.115 784.998C426.439 785.078 427.258 786.16 427.094 788.991C426.991 790.783 427.145 792.572 427.299 794.36C427.432 795.914 427.565 797.465 427.531 799.015C427.461 802.284 452.952 797.272 467.841 791.098C545.261 758.996 554.049 679.543 549.111 679.686L548.568 679.704C538.866 679.984 536.836 680.043 536.836 675.836C536.836 674.188 536.805 673.148 537.284 672.48C538.243 671.153 541.232 671.29 550.563 670.971C551.939 670.922 551.921 670.726 551.41 664.85C551.193 662.358 550.889 658.851 550.563 653.902C548.327 619.913 525.325 575.999 484.182 553.312C483.528 552.955 483.069 553.385 482.642 553.791C482.548 553.879 482.457 553.963 482.366 554.04C472.093 562.604 462.65 570.189 454.331 575.467C452.371 576.713 451.513 575.95 442.679 568.12C442.315 567.798 441.941 567.462 441.549 567.116C441.083 566.706 436.799 569.415 430.702 573.605C430.694 571.487 430.687 569.457 430.68 567.511C436.337 563.21 438.462 560.623 440.719 560.504C443.211 560.375 445.861 563.259 453.603 570.168C454.229 570.728 454.24 570.721 459.388 566.342C464.967 561.6 476.577 551.726 501.539 531.892C504.3 529.694 504.433 529.781 507.338 531.605C507.412 531.65 507.489 531.696 507.566 531.745L507.562 531.752C618.624 601.353 610.172 794.815 442.777 829.021C381.765 841.488 295.886 804.531 266.363 724.798C245.038 667.195 259.174 583.314 321.345 538.286C343.051 522.566 344.057 523.817 345.499 525.609L345.53 525.648C365.27 550.172 369.465 553.854 368.915 556.581C368.77 557.302 368.292 557.956 367.681 558.912C361.353 568.824 357.26 574.462 354.868 577.756C351.518 582.369 351.507 582.383 353.373 583.097C365.777 587.85 372.154 590.321 388.597 596.967C389.666 597.401 396.979 592.386 405.217 586.383C405.223 588.137 405.23 589.894 405.236 591.651ZM318.734 547.285C231.598 619.707 243.197 779.713 375.311 819.207C486.863 852.555 594.044 754.425 574.531 642.646C564.962 587.843 535.202 561.407 520.425 548.282C518.244 546.343 516.389 544.698 514.975 543.291C513.74 542.063 512.287 541.202 510.828 540.337C509.792 539.721 508.752 539.105 507.786 538.353C506.477 537.338 505.774 536.648 504.986 536.533C503.117 536.26 500.772 539.235 488.683 548.811C487.241 549.955 487.329 550.008 489.831 551.471C491.476 552.43 494.157 553.994 498.126 556.871C540.557 587.647 560.531 637.053 554.994 682.518C549.419 728.277 532.839 748.832 504.444 775.264C502.491 777.084 491.371 784.34 490.864 784.634C411.396 830.575 316.868 794.287 289.103 709.1C270.304 651.431 298.126 575.82 356.212 547.575C356.508 547.432 356.752 547.369 356.844 547.211C357.204 546.599 355.206 544.6 344.735 531.09C342.929 528.759 329.405 538.416 318.734 547.285Z" fill="#191919"/>
<path d="M449.172 558.691C458.832 497.32 458.982 497.022 463.333 500.953C492.792 527.555 493.545 526.442 490.132 530.002C485.19 535.157 482.894 536.144 454.397 559.923C451.391 562.433 449.749 563.409 449.168 558.688L449.172 558.691ZM461.156 504.512C458.905 531.675 452.091 556.749 454.838 554.624C456.518 553.326 484.616 529.277 484.69 529.277C486.797 527.534 486.692 529.029 465.443 508.289C464.194 507.071 462.829 506.038 461.159 504.512H461.156Z" fill="#191919"/>
<path d="M393.903 587.094C394.355 591.812 389.402 589.26 372.987 585.06C361.878 582.218 358.592 582.516 387.729 565.667C392.797 562.737 391.94 566.605 393.903 587.094ZM370.152 580.339C391.289 585.351 389.983 585.494 389.836 584.042C388.412 570.094 388.972 569.748 387.656 570.532C382.094 573.853 376.4 577.07 370.152 580.335V580.339Z" fill="#191919"/>
<path fill-rule="evenodd" clip-rule="evenodd" d="M503.754 666.082C503.009 667.625 497.608 666.911 465.734 666.911V667.058C433.856 667.723 428.535 668.588 427.64 666.985C427.459 666.656 427.46 666.229 427.458 665.679C427.123 550.792 426.874 534.734 426.577 515.605C426.489 509.907 426.396 503.936 426.296 495C426.274 493.081 426.284 493.081 432.106 492.98C433.782 492.951 435.938 492.913 438.714 492.82C442.508 492.691 439.694 488.792 437.307 485.484C436.904 484.928 436.516 484.389 436.173 483.888C434.864 481.98 433.649 480.203 432.519 478.55C419.253 459.148 417.71 456.89 414.746 461.229C399.374 483.727 393.406 491.077 394.903 493.224C395.873 494.615 399.977 493.821 406.685 493.548C407.174 493.527 407.538 493.512 407.809 493.664C408.873 494.263 408.47 497.469 408.43 513.277C409.669 514.048 410.839 514.834 411.869 515.639C411.858 515.114 411.848 514.595 411.839 514.08C411.641 503.852 411.48 495.56 411.48 491.584C411.48 491.187 411.484 490.901 411.356 490.697C410.901 489.965 408.774 490.275 398.848 490.275L417.437 463.042C421.718 469.836 426.276 476.355 430.905 482.977C432.561 485.343 434.223 487.722 435.886 490.132C425.961 490.132 423.571 489.801 422.996 490.67C422.809 490.952 422.813 491.361 422.813 491.948C422.813 492.022 423.496 663.282 423.902 678.969C423.946 680.673 423.475 680.663 420.9 680.614C419.637 680.589 417.867 680.554 415.404 680.712C415.069 680.733 414.801 680.897 414.585 680.845C413.162 680.509 413.969 670.775 412.425 548.527C412.336 541.464 412.215 534.23 412.09 527.349C411.105 528.266 409.888 529.382 408.534 530.611C408.546 531.524 408.56 532.462 408.575 533.421C410.582 659.715 406.165 679.851 411.735 683.155C412.812 683.795 414.261 683.806 416.202 683.834C436.292 684.107 467.305 684.047 490.706 684.002C494.889 683.991 498.826 683.984 502.414 683.981C502.774 683.977 503.047 683.967 503.257 684.075C503.94 684.429 503.957 686.056 504.083 693.494C504.146 697.242 507.457 694.827 528.842 679.224C529.413 678.808 529.997 678.384 530.592 677.95C534.064 675.413 530.326 673.033 522.728 668.196C521.776 667.59 520.764 666.943 519.697 666.257C516.697 664.318 514.23 662.634 512.203 661.255C503.38 655.235 502.97 654.955 503.793 664.587C503.849 665.235 503.929 665.721 503.754 666.082ZM506.253 660.706C506.778 660.251 510.086 663.012 528.846 675.917L528.842 675.92L506.544 691.243C506.544 690.211 506.537 689.203 506.526 688.209C506.512 686.273 506.498 684.401 506.544 682.528C506.554 682.045 506.565 681.664 506.414 681.366C505.585 679.735 499.932 680.558 463.403 680.495C432.428 680.439 428.103 681.069 427.612 679.977C427.509 679.749 427.574 679.445 427.598 679.042C427.738 676.641 427.678 674.982 427.637 673.841C427.562 671.773 427.549 671.409 428.907 671.416C450.351 671.5 458.758 671.374 470.119 671.202C478.152 671.083 487.661 670.94 504.297 670.835C506.621 670.817 506.6 670.425 506.376 666.225C506.313 665.039 506.232 663.551 506.187 661.682C506.176 661.206 506.106 660.832 506.253 660.706Z" fill="#191919"/>
<path d="M388.965 542.644C387.365 543.515 388.524 543.452 364.272 532.984C358.389 530.443 356.919 531.167 357.374 528.045C359.617 512.564 360.107 508.357 362.459 494.707C363.537 488.46 365.081 492.079 396.378 510.468C411.197 519.176 413.92 520.31 410.903 523.25C406.125 527.912 392.381 540.246 388.968 542.644H388.965ZM406.685 521.507L366.159 496.594C361.364 527.608 360.933 527.09 362.309 527.751C387.579 539.889 387.134 538.993 388.454 537.775C391.474 534.982 391.068 535.451 406.685 521.507Z" fill="#191919"/>
<path d="M694.077 307.325C715.469 308.9 736.473 328.619 748.478 346.472C752.972 353.161 753.934 355.341 751.747 358.383C741.334 372.869 737.253 394.282 678.971 441.179C671.849 446.912 654.79 455.858 653.624 456.575C648.49 459.736 648.546 452.865 641.133 442.922C607.974 398.451 587.457 399.854 585.427 397.31C582.879 394.118 585.353 394.835 598.065 387.723C672.206 346.231 681.705 306.411 694.081 307.325H694.077ZM593.631 395.35C610.48 401.016 625.831 414.866 637.353 428.25C654.457 448.119 651.643 453.499 654.713 451.563C710.909 416.133 749.5 358.376 747.169 354.242C728.545 321.171 694.238 307.479 690.591 312.554C677.932 330.166 664.985 346.581 648.322 360.56C618.89 385.249 594.432 394.261 593.631 395.35Z" fill="#191919"/>
<path d="M619.559 388.16C635.683 390.484 659.141 412.671 663.064 428.47C663.624 430.727 660.884 431.448 659.869 429.849C657.247 425.712 648.717 402.468 619.559 391.139C617.007 390.148 617.669 388.087 619.559 388.16Z" fill="#191919"/>
<path d="M638.805 375.38C659.697 377.242 683.889 413.677 678.751 415.763C677.001 416.473 676.553 414.828 674.537 411.188C666.763 397.139 653.957 383.241 638.658 378.505C637.276 378.078 635.914 377.854 636.187 376.472C636.418 375.313 637.419 375.261 638.802 375.383L638.805 375.38Z" fill="#191919"/>
</svg>
