<svg xmlns="http://www.w3.org/2000/svg" fill="none" viewBox="0 0 400 400" id="Deadline-2--Streamline-Brooklyn.svg" height="400" width="400"><desc>Deadline 2 Streamline Illustration: https://streamlinehq.com</desc><g id="deadline-2--work-deadline"><g id="flame"><path id="vector" fill="#ffbf78" d="M145.682 59.845c-3.528 22.618 8.826 23.738 9.338 39.054 0.176 5.228 0.288 6.846 -3.196 14.608 -1.62 3.61 -6.52 0.416 -6.682 -3.404 -0.084 -1.992 -0.328 -3.944 -0.456 -5.894 -0.16 -2.408 -8.068 -10.206 -9.13 -15.066 -3.88 -17.75 10.086 -37.932 10.126 -29.3v0.002Z" stroke-width="1"></path><path id="vector_2" fill="#ffbf78" d="M75.918 177.4634c-0.622 -8.798 -1.248 -5.52 -0.872 -9.088 0.576 -5.438 16.45 9.592 11.87 25.938 -2.152 7.6806 -2.548 3.906 -4.69 14.3606 -0.452 2.2 -1.624 4.02 -3.196 5.52 -1.124 1.074 -3.812 0.95 -4.732 -0.456 -2.966 -4.538 -3.408 -4.856 -3.528 -12.948 -0.096 -6.5166 4.938 -11.2486 5.146 -23.3246l0.002 -0.002Z" stroke-width="1"></path><path id="vector_3" fill="#ffbf78" d="M260.56 69.8042c-1.452 18.426 9.192 21.122 7.72 35.442 -0.59 5.726 -8.094 11.082 -10.168 5.602 -2.576 -6.806 -0.786 -6.434 -3.32 -11.746 -5.844 -12.246 -2.156 -18.196 2.532 -28.928 1.414 -3.238 3.238 -3.906 3.238 -0.374l-0.002 0.004Z" stroke-width="1"></path><path id="Subtract" fill="#ffbf78" fill-rule="evenodd" d="M293.248 184.2886c-0.908 5.0452 -1.38 7.6728 0.93 14.5462l0.002 0.002c1.714 5.0972 3.826 8.9372 5.782 12.4892 3.572 6.486 6.62 12.022 5.756 22.538 -1.208 14.706 -5.976 19.942 -12.274 26.858 -1.424 1.564 -2.926 3.212 -4.482 5.074 -1.27 -7.108 -3.362 -14.344 -6.362 -21.642l-0.002 0.002c-7.472 -18.176 -20.004 -33.41 -36.77 -43.91l-0.024 -0.016c-1.062 -0.6646 -1.886 -1.1814 -2.782 -1.3698 -1.476 -0.3112 -3.14 0.2714 -6.364 2.5598 -0.002 -0.034 -0.002 -0.066 -0.006 -0.1 -0.146 -2.239 -3.03 -4.2988 -7.798 -8.5442 -6.57 -5.8492 -10.012 -9.9372 -12.322 -9.3744 -3.066 0.7464 -4.136 9.6768 -7.868 33.5366 -2.41 -1.368 -4.824 -1.47 -7.742 1.32 -0.006 0.006 -0.414 0.316 -1.123 0.854 -0.0076 -2.342 -0.0142 -4.436 -0.02 -6.328 -0.0454 -14.6212 -0.0534 -17.1986 -0.309 -28.9706 0.808 -0.0214 1.542 -0.0268 2.208 -0.0318h0.002c3.164 -0.0232 4.804 -0.0354 5.634 -1.712 0.914 -1.8446 -0.346 -3.627 -2.846 -7.1706 -0.546 -0.7714 -1.15 -1.6262 -1.802 -2.5836 -0.606 -0.889 -1.212 -1.807 -1.812 -2.7208 -4.1744 -6.3372 -8.208 -12.462 -11.8 -7.2392 -1.8922 2.75 -3.5242 5.0852 -4.9192 7.0816l-0.0006 0.0006c-6.25 8.9438 -7.748 11.0876 -6.6182 13.2538 1.0062 1.927 3.389 1.7542 6.3272 1.541 0.4254 -0.0308 0.8626 -0.0626 1.3088 -0.089 0 0.0074 0.003 3.0162 0.0104 8.0066 -0.1944 -0.1118 -0.3892 -0.2234 -0.5834 -0.3346l-0.0058 -0.0034c-0.4072 -0.233 -0.8118 -0.4648 -1.2074 -0.6958v-0.002c-3.9562 -2.3116 -7.3074 -4.3992 -10.1406 -6.1638l-0.001 -0.0008 -0.0004 -0.0002c-9.8282 -6.122 -13.4188 -8.3586 -14.386 -2.5912 -0.3598 2.1446 -0.6892 4.0774 -0.9862 5.8212l-0.0008 0.004c-0.9638 5.6584 -1.5882 9.3236 -1.817 11.7618 -0.5534 -0.6736 -1.126 -1.3756 -1.7178 -2.1078 -3.9586 -4.8976 -10.0028 -0.4616 -17.23 4.8426l-0.0002 0c-0.7328 0.538 -1.4776 1.084 -2.2338 1.632 -7.9956 5.782 -14.8526 12.836 -20.4694 20.764 -1.6478 0.382 -3.4992 0.834 -5.5872 1.342l-0.0006 0 -0.0002 0c-5.4098 1.32 -12.408 3.028 -21.5716 4.9 -1.3804 -2.37 -2.1716 -4.198 -1.5932 -14.054 0.576 -9.794 8.218 -29.6352 12.658 -28.1792 0.805 0.2642 0.6922 3.1578 0.5424 7.003 -0.3912 10.0382 -1.035 26.5622 13.7336 19.7242 3.202 -1.482 4.308 -8.882 4.524 -12.492 0.2582 -4.305 -1.4116 -8.7188 -3.1054 -13.1958 -1.4414 -3.8098 -2.9 -7.6656 -3.2026 -11.5394 -0.7588 -9.7104 1.2058 -16.2408 3.2528 -23.0448 1.8964 -6.3042 3.8636 -12.8432 3.8008 -22.3644 5.588 -1.2446 11.106 -2.605 16.3696 -4.0754 1.74 6.6732 1.5556 15.2908 1.3854 23.2398 -0.154 7.1852 -0.296 13.8242 1.0054 17.9868 3.81 12.19 17.94 11.308 19.63 2.906 0.883 -4.3902 -1.6002 -9.6328 -4.3696 -15.48 -4.6148 -9.7436 -10.0248 -21.1658 -1.9804 -33.12 2.853 -4.24 5.7752 -5.963 8.65 -7.6582 2.7256 -1.6072 5.4086 -3.1894 7.95 -6.8678 3.324 -4.812 5.408 -11.79 3.942 -18.842l-0.0214 -0.1034c-3.0428 -14.64 -6.8944 -33.1722 -0.0626 -46.5866 3.8524 -7.5634 6.858 -19.6112 8.1816 -24.91712 0.2308 -0.92498 0.4104 -1.64508 0.5344 -2.10082 1.358 -4.984 5.778 -4.074 7.594 -0.416 3.0736 6.19234 2.0618 14.45274 0.9306 23.69094 -0.9132 7.456 -1.9042 15.5488 -0.8886 23.705 3.332 26.766 16.6142 28.344 17.0982 22.12 0.036 -0.4656 -0.172 -1.3744 -0.46 -2.6412 -1.284 -5.6258 -4.1806 -18.3122 5.482 -30.6028 0.306 -0.3894 0.618 -0.8576 0.958 -1.3648 1.36 -2.036 3.142 -4.703 6.596 -5.4412 3.074 -0.658 5.144 1.41 4.732 4.772 -0.12 0.9806 -0.51 2.0996 -1.042 3.6184l0 0.0002c-0.95 2.722 -2.35 6.728 -3.44 13.5214 -1.796 11.1838 5.492 16.9688 13.752 23.5244 9.912 7.869 21.224 16.8482 19.906 37.6076 -0.21 3.3086 -2.106 8.9346 -4.35 15.587 -5.128 15.2114 -12.064 35.7888 -4.78 46.293 3.772 5.44 16.814 10.8772 14.028 -26.104 -1.05 -13.944 -0.042 -17.306 4.732 -26.644 6.39 -12.494 13.388 -9.79 11.414 1.536 -0.09 0.5148 -0.216 1.0818 -0.364 1.737 -0.658 2.9378 -1.712 7.6478 -1.586 17.353 0.048 3.7512 1.274 7.624 2.616 11.8588 2.412 7.6196 5.198 16.4114 2.156 27.7752 -7.51 28.0552 3.648 29.7552 6.35 22.8672 1.36 -3.464 1.228 -6.19 1.006 -10.746 -0.15 -3.088 -0.34 -7.014 -0.134 -12.5772 0.332 -9.0168 3.658 -14.1158 8.284 -21.2104l0.002 -0.0024c0.462 -0.7096 0.938 -1.4394 1.426 -2.1952 0.506 -0.784 1.246 -1.128 2.158 -0.914 1.814 0.4242 1.068 4.2184 0.732 5.9216l0 0.0008 0 0.0028 0 0.0004 -0.002 0.0056c-0.046 0.2438 -0.086 0.4442 -0.108 0.5848 -0.204 1.312 -0.41 2.461 -0.598 3.5064l0 0.001 0 0.0004ZM161.7392 206.754c4.5942 5.432 6.802 8.162 6.854 10.932 0.0502 2.668 -1.8994 5.374 -5.643 10.568 -0.3536 0.49 -0.7234 1.004 -1.109 1.542 2.072 -1.962 6.034 -4.59 12.3948 -8.302 5.4956 -3.206 5.9162 3.284 6.351 9.99 0.0382 0.59 0.0766 1.182 0.1186 1.77 1.4026 -0.996 2.9494 -2.116 4.5442 -3.282 -0.0286 -8.936 -0.0494 -17.622 -0.0644 -24.986 -3.1112 2.778 -6.6646 5.858 -8.0856 6.88l-0.1146 0.062c-0.348 0.184 -0.6182 0.328 -0.9062 0.404 -0.998 0.268 -2.2098 -0.266 -7.621 -2.646l-0.0004 0c-1.7534 -0.772 -3.9476 -1.736 -6.7184 -2.932ZM128.8318 184.8088c0.514 5.604 3.982 6.782 9.048 7.262 3.194 0.304 3.39 -2.434 1.702 -3.942 -3.2958 -2.9434 -4.793 -5.6164 -5.8388 -7.4834 -0.9844 -1.7574 -1.569 -2.801 -2.8772 -2.6846 -1.95 0.174 -2.208 4.94 -2.034 6.848Zm30.8236 -58.16c-0.2986 0.4602 -0.597 0.9198 -0.9416 1.342v0.002c-5.09 6.238 -4.358 16.85 2.864 16.726 6.558 0.622 8.43 -15.692 5.852 -20.254 -1.244 -2.202 -3.314 -1.608 -5.396 -0.416 -1.0986 0.6284 -1.7392 1.6154 -2.3784 2.6Zm67.8686 2.09c-1.494 9.586 9.896 13.24 10.21 3.652 0.176 -5.354 -1.434 -17.646 -6.392 -19.216 -1.25 -0.396 -3.074 0.29 -3.444 1.494 -1.132 3.678 -0.906 5.4696 -0.618 7.7432 0.2 1.5974 0.432 3.4326 0.244 6.3268Zm29.134 69.226c-1.86 1.916 -1.036 3.2352 0.042 4.6052 3.616 4.602 8.756 -2.49 8.59 -8.5072l-0.034 -0.3416c-0.312 -3.0666 -0.544 -5.3446 -2.664 -5.6764 -2.148 -0.336 -2.704 1.7542 -3.37 4.259 -0.518 1.9528 -1.104 4.1576 -2.564 5.661Z" clip-rule="evenodd" stroke-width="1"></path></g><g id="paper 5"><path id="Subtract_2" fill="#191919" fill-rule="evenodd" d="M247.834 361.714c3.346 5.51 7.254 11.024 10.736 15.498 0.452 0.58 0.87 1.122 1.26 1.626 4.556 5.886 5.22 6.742 8.202 5.636l0.002 0.004c27.63 -10.238 59.704 -27.044 79.02 -40.298 0.786 -0.542 1.078 -0.998 -0.25 -2.408 -11.074 -11.752 -22.544 -28.136 -28.678 -39.096 -1.07 -1.91 -4.712 0.232 -13.912 5.646 -5.284 3.11 -12.402 7.298 -21.918 12.416 -0.736 1.636 -1.516 3.248 -2.34 4.836 2.318 -1.208 4.774 -2.504 7.374 -3.894 6.68 -3.57 21.69 -11.748 27.93 -16.102 1.246 -0.868 2.172 0.784 4.362 4.686 3.308 5.896 9.498 16.928 24.026 32.168 0.15 0.158 0.284 0.26 0.304 0.38 0.09 0.544 -2.126 1.472 -15.41 9.706 -17.954 11.132 -40.192 20.74 -56.874 27.948 -1.642 0.71 -3.23 1.396 -4.756 2.058v-0.002c-0.332 0.248 -0.664 -0.084 -0.914 -0.582 -2.1 -3.016 -4.062 -5.658 -5.964 -8.216 -3.252 -4.38 -6.324 -8.516 -9.592 -13.862 -0.86 0.63 -1.73 1.248 -2.608 1.852Z" clip-rule="evenodd" stroke-width="1"></path><path id="vector_4" fill="#191919" d="M252.51 343.262c0.208 -0.042 0.332 0.042 0.416 0.25 2.408 4.648 5.234 9.044 7.76 13.612 9.358 16.922 12.246 18.596 11.414 19.298 -2.566 2.166 -21.706 -31.584 -19.59 -33.16Z" stroke-width="1"></path><path id="vector_5" fill="#191919" d="M261.93 341.062c3.32 3.278 7.778 12.674 15.854 25.026 3.558 5.444 3.894 5.016 3.444 5.52 -2.486 2.788 -19.714 -27.308 -19.298 -30.546Z" stroke-width="1"></path></g><g id="paper 4"><path id="Subtract_3" fill="#191919" fill-rule="evenodd" d="M109.8634 332.01c-8.865 1.502 -19.0472 3.018 -30.7094 4.444 -2.836 0.35 -2.6584 1.646 -1.5646 9.638 0.0748 0.546 0.154 1.124 0.2366 1.734 1.198 8.84 4.654 20.002 7.802 28.346 0.2324 0.618 0.4494 1.196 0.653 1.74 2.6774 7.144 3.0738 8.2 6.237 8.014v-0.002c23.353 -1.372 50.6222 -5.904 72.0784 -11.194 -1.6014 -0.506 -3.2008 -1.06 -4.7966 -1.662 -0.0438 0.012 -0.0878 0.024 -0.1318 0.034 -20.387 5.38 -44.4398 8.046 -62.4888 10.046 -1.7964 0.198 -3.5332 0.392 -5.2012 0.578l-0.002 -0.002c-0.372 0.126 -0.58 -0.29 -0.788 -0.788 -1.156 -3.616 -2.3 -6.806 -3.4094 -9.9 -3.232 -9.012 -6.1696 -17.204 -8.2526 -32.722 -0.2026 -1.514 -0.1852 -1.516 3.9732 -1.842 4.098 -0.322 12.2178 -0.96 28.1118 -3.674 -0.6008 -0.922 -1.1834 -1.852 -1.7476 -2.788Z" clip-rule="evenodd" stroke-width="1"></path><path id="vector_6" fill="#191919" d="M89.738 341.936c0.208 0 0.29 0.166 0.332 0.332 0.914 5.146 2.326 10.168 3.404 15.272 3.992 18.924 6.22 21.362 5.23 21.788 -3.088 1.332 -11.414 -36.48 -8.964 -37.394l-0.002 0.002Z" stroke-width="1"></path><path id="vector_7" fill="#191919" d="M99.366 342.64c2.2 4.108 3.728 14.404 7.844 28.554 1.824 6.268 2.278 5.928 1.66 6.308 -3.176 1.956 -10.832 -31.916 -9.504 -34.862Z" stroke-width="1"></path></g><g id="paper 3"><path id="Subtract_4" fill="#191919" fill-rule="evenodd" d="M111.0328 230.144c-0.191 0.046 -0.3844 0.094 -0.58 0.14 -12.524 3.032 -34.4906 8.346 -70.8088 12.79 -2.836 0.348 -2.6584 1.646 -1.5646 9.636 0.0748 0.546 0.154 1.124 0.2366 1.736 1.198 8.84 4.524 19.63 7.802 28.346 0.2258 0.6 0.437 1.164 0.6358 1.694 2.6878 7.184 3.0846 8.246 6.2542 8.06v-0.002c13.7892 -0.81 28.9336 -2.718 43.4448 -5.232 -0.0414 -0.87 -0.0714 -1.738 -0.0902 -2.606 -13.669 2.286 -27.364 3.804 -38.6934 5.06 -1.7964 0.198 -3.5334 0.392 -5.2012 0.58l-0.002 -0.002c-0.414 0.126 -0.626 -0.29 -0.788 -0.788 -1.1116 -3.404 -2.2022 -6.434 -3.2566 -9.36 -3.3206 -9.22 -6.2818 -17.442 -8.4054 -33.262 -0.2026 -1.516 -0.1852 -1.518 3.9732 -1.844 5.4034 -0.424 17.7988 -1.398 45.7888 -6.954 4.3706 -0.868 11.9506 -2.41 18.9318 -4.006 0.7426 -1.348 1.517 -2.676 2.323 -3.986Z" clip-rule="evenodd" stroke-width="1"></path><path id="vector_8" fill="#191919" d="M50.2278 248.596c0.208 0 0.29 0.166 0.332 0.332 0.914 5.146 2.326 10.168 3.404 15.272 3.992 18.924 6.22 21.362 5.23 21.788 -3.088 1.332 -11.454 -36.522 -8.964 -37.394l-0.002 0.002Z" stroke-width="1"></path><path id="vector_9" fill="#191919" d="M59.8562 249.26c2.2 4.108 3.728 14.404 7.844 28.554 1.824 6.268 2.242 5.934 1.702 6.308 -3.238 1.992 -10.874 -31.916 -9.546 -34.862Z" stroke-width="1"></path></g><g id="paper 1"><path id="vector_10" fill="#191919" d="M27.734 134.59c0.208 -0.084 0.292 0.04 0.374 0.166 2.576 3.956 5.4 7.758 8.01 11.662 9.73 14.556 12.444 15.848 11.746 16.56 -2.138 2.18 -21.914 -26.81 -20.128 -28.388h-0.002Z" stroke-width="1"></path><path id="vector_11" fill="#191919" d="M36.034 131.8926c3.238 2.698 7.978 10.826 16.186 21.374 3.614 4.646 3.896 4.228 3.528 4.732 -1.984 2.714 -19.838 -23.158 -19.714 -26.104v-0.002Z" stroke-width="1"></path><path id="Subtract_5" fill="#191919" fill-rule="evenodd" d="M39.0266 120.9278c-6.4108 3.8642 -13.7166 8.081 -22.04044 12.6242 -2.29042 1.2502 -1.7089 2.2702 1.92566 8.6456 0.2437 0.4274 0.50114 0.879 0.77234 1.3564 3.98404 7.014 10.61804 15.236 16.10204 21.166 0.4756 0.5142 0.9152 0.9926 1.3236 1.4366 4.5042 4.8996 5.175 5.6294 7.7644 4.4154h0.002c19.649 -9.214 41.7758 -22.3874 58.0702 -34.3666 -2.062 0.383 -4.1112 0.7494 -6.138 1.099 -15.2038 11.2684 -34.266 21.4982 -48.6584 29.2222 -1.536 0.8242 -3.0186 1.62 -4.4378 2.3854v-0.002c-0.29 0.248 -0.628 -0.036 -0.954 -0.416 -1.8142 -2.1154 -3.5098 -4.0122 -5.1424 -5.8386 -6.2258 -6.9646 -11.536 -12.9048 -19.01164 -26.0354 -0.69966 -1.2286 -0.69126 -1.2328 2.85644 -3.0056 3.0092 -1.5036 8.5648 -4.2796 18.3946 -10.1542 -0.283 -0.8422 -0.5594 -1.6864 -0.8286 -2.5324Z" clip-rule="evenodd" stroke-width="1"></path><path id="vector_12" fill="#191919" d="M53.008 138.2838c-3.404 0.198 -3.604 -1.04 -6.89 -9.754 -3.148 -8.344 -6.604 -19.506 -7.802 -28.346 -1.292 -9.544 -1.702 -11 1.328 -11.372 65.316 -7.99 84.214 -18.802 85.246 -14.07 2.674 12.28 8.774 31.306 15.978 45.776 0.868 1.744 0.454 2.07 -0.498 2.366 -22.45 6.97 -57.984 13.692 -87.362 15.398v0.002Zm-0.54 -2.2c18.426 -2.076 45.274 -4.71 67.69 -10.624 18.464 -4.872 17.938 -4.112 17.39 -5.23 -15.412 -31.408 -12.7 -44.742 -16.352 -43.578 -7.264 2.318 -23.988 5.768 -31.418 7.222 -49.556 9.7 -50.226 5.314 -49.762 8.756 2.814 20.84 7.358 28.402 11.662 42.622 0.176 0.578 0.374 0.996 0.788 0.83l0.002 0.002Z" stroke-width="1"></path><path id="vector_13" fill="#191919" d="M50.2282 94.332c0.208 0 0.29 0.166 0.332 0.332 0.914 5.146 2.326 10.168 3.404 15.272 3.992 18.924 6.22 21.362 5.23 21.788 -3.088 1.332 -11.454 -36.48 -8.964 -37.394l-0.002 0.002Z" stroke-width="1"></path><path id="vector_14" fill="#191919" d="M59.8562 94.996c2.2 4.108 3.728 14.404 7.844 28.554 1.824 6.268 2.242 5.934 1.702 6.308 -3.238 1.992 -10.874 -31.874 -9.546 -34.862Z" stroke-width="1"></path></g><g id="clock"><path id="vector_15" fill="#191919" d="M161.2458 345.628c0.332 -1.618 2.486 -6.63 3.942 -6.018 0.704 0.296 0.672 1.08 0.54 1.826 -0.946 5.362 -4.772 7.76 -4.482 4.192Z" stroke-width="1"></path><path id="vector_16" fill="#191919" d="M232.506 342.43c0.084 1.66 -1.286 1.826 -1.868 0.996 -5.726 -8.176 0 -8.798 1.868 -0.996Z" stroke-width="1"></path><path id="vector_17" fill="#191919" d="M132.5678 320.85c-1.246 0.042 -1.534 -1.242 -0.83 -1.868 1.166 -1.034 5.254 -4.344 6.226 -3.112 1.06 1.344 -3.818 4.772 -5.396 4.98Z" stroke-width="1"></path><path id="vector_18" fill="#191919" d="M259.026 312.052c0 0.83 -0.616 1.398 -1.286 1.038 -1.848 -0.992 -3.864 -1.614 -5.478 -2.988 -1.166 -0.992 -0.494 -2.094 0.83 -1.744 1.042 0.276 6.184 2.698 5.934 3.694Z" stroke-width="1"></path><path id="vector_19" fill="#191919" d="M259.648 256.108c1.246 -0.084 1.666 0.792 1.08 1.536 -0.494 0.626 -0.04 0.336 -5.146 2.532 -1.162 0.5 -1.784 -0.83 -1.038 -1.494 1.536 -1.368 3.528 -1.868 5.104 -2.574Z" stroke-width="1"></path><path id="vector_20" fill="#191919" d="M137.5058 235.272c0.25 -4.068 8.344 4.804 4.772 3.86 -1.908 -0.504 -3.154 -1.95 -4.606 -3.154 -0.166 -0.166 -0.166 -0.456 -0.166 -0.706Z" stroke-width="1"></path><path id="vector_21" fill="#191919" d="M125.6778 259.802c-1.038 -3.902 9.42 1.936 5.728 2.158 -1.952 0.118 -3.61 -0.834 -5.354 -1.536 -0.208 -0.084 -0.29 -0.374 -0.374 -0.622Z" stroke-width="1"></path><path id="vector_22" fill="#191919" d="M236.572 231c-1.074 1.414 -2.806 0.466 -1.744 -1.162 2.316 -3.548 2.936 -4.42 3.776 -3.984 1.352 0.7 -0.116 2.622 -2.034 5.146h0.002Z" stroke-width="1"></path><path id="Subtract_6" fill="#191919" fill-rule="evenodd" d="M185.2778 238.086c-2.1384 1.524 -4.2042 2.99 -6.0598 4.282 -2.2284 2.016 -2.3162 1.982 -13.0686 -2.15 -1.8702 -0.718 -4.0628 -1.562 -6.6454 -2.54 -0.3756 -0.142 -0.7362 -0.278 -1.0822 -0.408 -6.7278 -2.54 -7.9526 -3.002 -6.1798 -5.61 3.494 -5.14 6.98 -9.904 9.462 -12.948 0.408 -0.504 0.406 -0.776 -2.076 -3.57v-0.004c-0.41 -0.462 -1.748 -0.17 -2.282 0.456 -0.2206 0.26 -0.9576 0.684 -2.0838 1.332 -7.8646 4.526 -34.7098 19.974 -37.1782 66.15 0.3082 -0.002 0.606 -0.006 0.8934 -0.008 7.801 -0.078 8.098 -0.08 8.0286 3.08 -0.03 1.328 -0.582 1.908 -1.868 1.826 -1.0504 -0.066 -2.1014 0.026 -3.1522 0.116 -0.9002 0.078 -1.8002 0.156 -2.6998 0.134 -3.32 -0.076 2.496 48.832 50.84 65.408 1.0408 0.358 2.1108 0.618 3.1766 0.876 1.146 0.278 2.287 0.556 3.3814 0.95 0.4112 0.15 0.8442 0.178 1.276 0.204 0.3976 0.026 0.7942 0.05 1.172 0.17 3.0606 0.968 6.232 1.138 9.3984 1.308 1.1724 0.062 2.3442 0.126 3.5096 0.228 1.0468 0.094 1.0344 -0.226 0.9672 -1.95 -0.0396 -1.012 -0.0978 -2.508 0.0288 -4.69 0.122 -2.076 0.83 -2.234 3.03 -2.158 1.328 0.046 1.796 0.664 1.702 2.282 -0.059 1.024 0.029 2.046 0.117 3.068 0.0762 0.888 0.1524 1.774 0.133 2.66 -0.04 1.868 14.526 -0.996 23.034 -4.524 44.24 -18.344 49.262 -63.746 46.44 -63.664l-0.31 0.01c-5.544 0.16 -6.704 0.194 -6.704 -2.21 0 -0.942 -0.018 -1.536 0.256 -1.918 0.548 -0.758 2.256 -0.68 7.588 -0.862 0.786 -0.028 0.776 -0.14 0.484 -3.498 -0.124 -1.424 -0.298 -3.428 -0.484 -6.256 -1.278 -19.422 -14.422 -44.516 -37.932 -57.48 -0.374 -0.204 -0.636 0.042 -0.88 0.274 -0.054 0.05 -0.106 0.098 -0.158 0.142 -5.87 4.894 -11.266 9.228 -16.02 12.244 -1.12 0.712 -1.61 0.276 -6.658 -4.198 -0.208 -0.184 -0.422 -0.376 -0.646 -0.574 -0.266 -0.234 -2.714 1.314 -6.1982 3.708 -0.0046 -1.21 -0.0088 -2.37 -0.0128 -3.482 3.233 -2.458 4.447 -3.936 5.737 -4.004 1.424 -0.074 2.938 1.574 7.362 5.522 0.358 0.32 0.364 0.316 3.306 -2.186 3.188 -2.71 9.822 -8.352 24.086 -19.686 1.578 -1.256 1.654 -1.206 3.314 -0.164 0.042 0.026 0.086 0.052 0.13 0.08l-0.002 0.004c63.464 39.772 58.634 150.322 -37.02 169.868 -34.864 7.124 -83.938 -13.994 -100.808 -59.556 -12.186 -32.916 -4.108 -80.848 31.418 -106.578 12.4034 -8.983 12.9784 -8.2678 13.8022 -7.244l0.0178 0.022c11.2802 14.014 13.6774 16.118 13.363 17.676 -0.0832 0.412 -0.3564 0.786 -0.705 1.332 -3.616 5.664 -5.9554 8.886 -7.322 10.768 -1.9142 2.636 -1.9206 2.644 -0.854 3.052 7.088 2.716 10.732 4.128 20.128 7.926 0.6104 0.248 4.7896 -2.618 9.497 -6.048 0.0034 1.002 0.0072 2.006 0.0108 3.01ZM135.848 212.734c-49.792 41.384 -43.164 132.816 32.33 155.384 63.744 19.056 124.99 -37.018 113.84 -100.892 -5.468 -31.316 -22.474 -46.422 -30.918 -53.922 -1.246 -1.108 -2.306 -2.048 -3.114 -2.852 -0.706 -0.702 -1.536 -1.194 -2.37 -1.688 -0.592 -0.352 -1.186 -0.704 -1.738 -1.134 -0.748 -0.58 -1.15 -0.974 -1.6 -1.04 -1.068 -0.156 -2.408 1.544 -9.316 7.016 -0.824 0.654 -0.774 0.684 0.656 1.52 0.94 0.548 2.472 1.442 4.74 3.086 24.246 17.586 35.66 45.818 32.496 71.798 -3.186 26.148 -12.66 37.894 -28.886 52.998 -1.116 1.04 -7.47 5.186 -7.76 5.354 -45.41 26.252 -99.426 5.516 -115.292 -43.162 -10.742 -32.954 5.156 -76.16 38.348 -92.3 0.1692 -0.082 0.3086 -0.118 0.361 -0.208 0.2056 -0.35 -0.9356 -1.492 -6.919 -9.212 -1.032 -1.332 -8.76 4.186 -14.858 9.254Z" clip-rule="evenodd" stroke-width="1"></path><path id="vector_23" fill="#191919" d="M210.384 219.252c5.52 -35.0692 5.606 -35.2392 8.092 -32.9932 16.834 15.2012 17.264 14.5652 15.314 16.5992 -2.824 2.946 -4.136 3.51 -20.42 17.098 -1.718 1.434 -2.656 1.992 -2.988 -0.706l0.002 0.002Zm6.848 -30.9592c-1.286 15.5212 -5.18 29.8492 -3.61 28.6352 0.96 -0.742 17.016 -14.484 17.058 -14.484 1.204 -0.996 1.144 -0.142 -10.998 -11.9932 -0.714 -0.696 -1.494 -1.286 -2.448 -2.158h-0.002Z" stroke-width="1"></path><path id="vector_24" fill="#191919" d="M178.802 235.482c0.258 2.696 -2.572 1.238 -11.952 -1.162 -6.348 -1.624 -8.226 -1.454 8.424 -11.082 2.896 -1.674 2.406 0.536 3.528 12.244Zm-13.572 -3.86c12.078 2.864 11.332 2.946 11.248 2.116 -0.814 -7.97 -0.494 -8.168 -1.246 -7.72 -3.178 1.898 -6.432 3.736 -10.002 5.602v0.002Z" stroke-width="1"></path><path id="Subtract_7" fill="#191919" fill-rule="evenodd" d="M241.574 280.618c-0.426 0.882 -3.512 0.474 -21.726 0.474v0.084c-18.216 0.38 -21.2564 0.874 -21.7678 -0.042 -0.1038 -0.188 -0.1032 -0.432 -0.1042 -0.746 -0.1912 -65.65 -0.3336 -74.826 -0.5032 -85.7566 -0.0506 -3.256 -0.1034 -6.6678 -0.1608 -11.7742 -0.0124 -1.0966 -0.0068 -1.0968 3.32 -1.1544 0.958 -0.0166 2.19 -0.038 3.776 -0.0916 2.168 -0.0736 0.56 -2.3014 -0.804 -4.192 -0.23 -0.3174 -0.452 -0.6254 -0.648 -0.912 -0.748 -1.0902 -1.442 -2.1056 -2.088 -3.05 -7.5804 -11.0872 -8.4622 -12.377 -10.156 -9.898 -8.7842 12.856 -12.194 17.0564 -11.3386 18.2832 0.5542 0.7948 2.899 0.3412 6.7326 0.1848 0.2792 -0.0116 0.4874 -0.0204 0.6418 0.0664 0.6082 0.3426 0.3778 2.1746 0.355 11.2076 0.708 0.4406 1.3768 0.8894 1.965 1.3494 -0.0058 -0.2996 -0.0116 -0.5966 -0.0172 -0.8906 -0.113 -5.8444 -0.2046 -10.5828 -0.2046 -12.8548 0 -0.2268 0.0018 -0.3902 -0.071 -0.5072 -0.2602 -0.4178 -1.4756 -0.241 -7.1476 -0.2408l10.6226 -15.562c2.446 3.8826 5.0504 7.6078 7.6958 11.3916 0.9462 1.352 1.8962 2.7116 2.8462 4.0884 -5.6714 0 -7.0372 -0.1892 -7.3658 0.3076 -0.1068 0.1612 -0.1042 0.3946 -0.1042 0.7304 0 0.042 0.39 97.9048 0.622 106.8688 0.0254 0.974 -0.2442 0.968 -1.7152 0.94 -0.722 -0.014 -1.7332 -0.034 -3.1408 0.056 -0.1916 0.012 -0.3446 0.106 -0.468 0.076 -0.813 -0.192 -0.352 -5.754 -1.234 -75.61 -0.051 -4.036 -0.12 -8.17 -0.1918 -12.102 -0.5626 0.524 -1.2582 1.162 -2.032 1.864 0.0072 0.522 0.015 1.058 0.0238 1.606 1.1464 72.168 -1.3774 83.674 1.8056 85.562 0.615 0.366 1.4434 0.372 2.5524 0.388 11.48 0.156 29.202 0.122 42.574 0.096 2.39 -0.006 4.64 -0.01 6.69 -0.012 0.206 -0.002 0.362 -0.008 0.482 0.054 0.39 0.202 0.4 1.132 0.472 5.382 0.036 2.142 1.928 0.762 14.148 -8.154 0.326 -0.238 0.66 -0.48 1 -0.728 1.984 -1.45 -0.152 -2.81 -4.494 -5.574 -0.544 -0.346 -1.122 -0.716 -1.732 -1.108 -1.714 -1.108 -3.124 -2.07 -4.282 -2.858 -5.042 -3.44 -5.276 -3.6 -4.806 1.904 0.032 0.37 0.078 0.648 -0.022 0.854Zm1.428 -3.072c0.3 -0.26 2.19 1.318 12.91 8.692l-0.002 0.002 -12.742 8.756c0 -0.59 -0.004 -1.166 -0.01 -1.734 -0.008 -1.106 -0.016 -2.176 0.01 -3.246 0.006 -0.276 0.012 -0.494 -0.074 -0.664 -0.474 -0.932 -3.704 -0.462 -24.578 -0.498 -17.7 -0.032 -20.1716 0.328 -20.4522 -0.296 -0.0588 -0.13 -0.0214 -0.304 -0.0078 -0.534 0.0802 -1.372 0.046 -2.32 0.0222 -2.972 -0.0428 -1.182 -0.0504 -1.39 0.7258 -1.386 12.254 0.048 17.058 -0.024 23.55 -0.122 4.59 -0.068 10.024 -0.15 19.53 -0.21 1.328 -0.01 1.316 -0.234 1.188 -2.634 -0.036 -0.678 -0.082 -1.528 -0.108 -2.596 -0.006 -0.272 -0.046 -0.486 0.038 -0.558Z" clip-rule="evenodd" stroke-width="1"></path><path id="vector_25" fill="#191919" d="M175.98 210.082c-0.914 0.498 -0.252 0.462 -14.11 -5.52 -3.362 -1.452 -4.202 -1.038 -3.942 -2.822 1.282 -8.8462 1.562 -11.2502 2.906 -19.0502 0.616 -3.57 1.498 -1.502 19.382 9.006 8.468 4.976 10.024 5.624 8.3 7.304 -2.73 2.6642 -10.584 9.7122 -12.534 11.0822h-0.002Zm10.126 -12.0782 -23.158 -14.236c-2.74 17.7222 -2.986 17.4262 -2.2 17.8042 14.44 6.936 14.186 6.424 14.94 5.728 1.726 -1.596 1.494 -1.328 10.418 -9.2962Z" stroke-width="1"></path></g><g id="paper 2"><path id="vector_26" fill="#191919" d="M350.33 75.6142c12.224 0.9 24.226 12.168 31.086 22.37 2.568 3.822 3.118 5.068 1.868 6.806 -5.95 8.278 -8.282 20.514 -41.586 47.312 -4.07 3.276 -13.818 8.388 -14.484 8.798 -2.934 1.806 -2.902 -2.12 -7.138 -7.802 -18.948 -25.412 -30.672 -24.61 -31.832 -26.064 -1.456 -1.824 -0.042 -1.414 7.222 -5.478 42.366 -23.71 47.794 -46.464 54.866 -45.942h-0.002Zm-57.398 50.3c9.628 3.238 18.4 11.152 24.984 18.8 9.774 11.354 8.166 14.428 9.92 13.322 32.112 -20.246 54.164 -53.25 52.832 -55.612 -10.642 -18.898 -30.246 -26.722 -32.33 -23.822 -7.234 10.064 -14.632 19.444 -24.154 27.432 -16.818 14.108 -30.794 19.258 -31.252 19.88Z" stroke-width="1"></path><path id="vector_27" fill="#191919" d="M307.748 121.8058c9.214 1.328 22.618 14.006 24.86 23.034 0.32 1.29 -1.246 1.702 -1.826 0.788 -1.498 -2.364 -6.372 -15.646 -23.034 -22.12 -1.458 -0.566 -1.08 -1.744 0 -1.702Z" stroke-width="1"></path><path id="vector_28" fill="#191919" d="M318.746 114.5026c11.938 1.064 25.762 21.884 22.826 23.076 -1 0.406 -1.256 -0.534 -2.408 -2.614 -4.442 -8.028 -11.76 -15.97 -20.502 -18.676 -0.79 -0.244 -1.568 -0.372 -1.412 -1.162 0.132 -0.662 0.704 -0.692 1.494 -0.622l0.002 -0.002Z" stroke-width="1"></path></g></g></svg>